<mxfile host="65bd71144e">
    <diagram id="hO9jk3VrIOAPBaySiKFZ" name="Pagina-1">
        <mxGraphModel dx="2680" dy="2085" grid="1" gridSize="10" guides="1" tooltips="1" connect="1" arrows="1" fold="1" page="1" pageScale="1" pageWidth="827" pageHeight="1169" math="0" shadow="0">
            <root>
                <mxCell id="0"/>
                <mxCell id="1" parent="0"/>
                <mxCell id="14" value="&lt;p style=&quot;margin: 4px 0px 0px; text-align: center; font-size: 30px;&quot;&gt;&lt;b style=&quot;&quot;&gt;&lt;font style=&quot;font-size: 30px;&quot;&gt;rv_encapsulator&lt;/font&gt;&lt;/b&gt;&lt;/p&gt;&lt;hr style=&quot;font-size: 30px;&quot; size=&quot;1&quot;&gt;&lt;div style=&quot;height: 2px; font-size: 30px;&quot;&gt;&lt;/div&gt;" style="verticalAlign=top;align=left;overflow=fill;fontSize=12;fontFamily=Courier New;html=1;fillColor=#F5F5F5;" parent="1" vertex="1">
                    <mxGeometry x="200" y="90" width="1050" height="290" as="geometry"/>
                </mxCell>
                <mxCell id="22" style="edgeStyle=orthogonalEdgeStyle;html=1;entryX=0;entryY=0.5;entryDx=0;entryDy=0;fontFamily=Courier New;fontSize=20;endArrow=none;endFill=0;rounded=0;" parent="1" source="15" target="17" edge="1">
                    <mxGeometry relative="1" as="geometry"/>
                </mxCell>
                <mxCell id="15" value="encapsulator" style="rounded=0;whiteSpace=wrap;html=1;fillColor=#B1DDF0;fontFamily=Courier New;fontSize=20;points=[[0,0,0,0,0],[0,0.15,0,0,0],[0,0.32,0,0,0],[0,0.45,0,0,0],[0,0.6,0,0,0],[0,0.75,0,0,0],[0,0.9,0,0,0],[0,1,0,0,0],[0.25,0,0,0,0],[0.25,1,0,0,0],[0.5,0,0,0,0],[0.5,1,0,0,0],[0.75,0,0,0,0],[0.75,1,0,0,0],[1,0,0,0,0],[1,0.25,0,0,0],[1,0.5,0,0,0],[1,0.75,0,0,0],[1,1,0,0,0]];" parent="1" vertex="1">
                    <mxGeometry x="240" y="177" width="200" height="120" as="geometry"/>
                </mxCell>
                <mxCell id="23" style="edgeStyle=none;html=1;entryX=0;entryY=0.5;entryDx=0;entryDy=0;fontFamily=Courier New;fontSize=20;endArrow=none;endFill=0;" parent="1" source="17" target="18" edge="1">
                    <mxGeometry relative="1" as="geometry"/>
                </mxCell>
                <mxCell id="17" value="fifo" style="rounded=0;whiteSpace=wrap;html=1;fillColor=#FFF2CC;fontFamily=Courier New;fontSize=20;" parent="1" vertex="1">
                    <mxGeometry x="480" y="207" width="120" height="60" as="geometry"/>
                </mxCell>
                <mxCell id="24" style="edgeStyle=none;html=1;fontFamily=Courier New;fontSize=20;endArrow=none;endFill=0;" parent="1" source="18" target="20" edge="1">
                    <mxGeometry relative="1" as="geometry"/>
                </mxCell>
                <mxCell id="18" value="slicer" style="rounded=0;whiteSpace=wrap;html=1;fillColor=#FFF2CC;fontFamily=Courier New;fontSize=20;" parent="1" vertex="1">
                    <mxGeometry x="640" y="207" width="120" height="60" as="geometry"/>
                </mxCell>
                <mxCell id="25" style="edgeStyle=orthogonalEdgeStyle;html=1;entryX=0;entryY=0.2;entryDx=0;entryDy=0;fontFamily=Courier New;fontSize=20;endArrow=none;endFill=0;entryPerimeter=0;rounded=0;" parent="1" source="20" target="21" edge="1">
                    <mxGeometry relative="1" as="geometry">
                        <Array as="points">
                            <mxPoint x="940" y="237"/>
                            <mxPoint x="940" y="201"/>
                        </Array>
                    </mxGeometry>
                </mxCell>
                <mxCell id="20" value="fifo" style="rounded=0;whiteSpace=wrap;html=1;fillColor=#FFF2CC;fontFamily=Courier New;fontSize=20;" parent="1" vertex="1">
                    <mxGeometry x="800" y="207" width="120" height="60" as="geometry"/>
                </mxCell>
                <mxCell id="21" value="atb_transmitter" style="rounded=0;whiteSpace=wrap;html=1;fillColor=#FFF2CC;fontFamily=Courier New;fontSize=20;points=[[0,0,0,0,0],[0,0.2,0,0,0],[0,0.4,0,0,0],[0,0.6,0,0,0],[0,0.8,0,0,0],[0,1,0,0,0],[0.25,0,0,0,0],[0.25,1,0,0,0],[0.5,0,0,0,0],[0.5,1,0,0,0],[0.75,0,0,0,0],[0.75,1,0,0,0],[1,0,0,0,0],[1,0.25,0,0,0],[1,0.5,0,0,0],[1,0.75,0,0,0],[1,1,0,0,0]];" parent="1" vertex="1">
                    <mxGeometry x="1000" y="177" width="210" height="120" as="geometry"/>
                </mxCell>
                <mxCell id="48" style="edgeStyle=elbowEdgeStyle;html=1;entryX=0;entryY=0.15;entryDx=0;entryDy=0;fontFamily=Courier New;fontSize=10;endArrow=none;endFill=0;entryPerimeter=0;rounded=0;" parent="1" source="26" target="15" edge="1">
                    <mxGeometry relative="1" as="geometry"/>
                </mxCell>
                <mxCell id="26" value="" style="shape=display;whiteSpace=wrap;html=1;fontFamily=Courier New;fontSize=30;fillColor=default;" parent="1" vertex="1">
                    <mxGeometry x="190" y="190" width="20" height="10" as="geometry"/>
                </mxCell>
                <mxCell id="49" style="edgeStyle=elbowEdgeStyle;html=1;exitX=1;exitY=0.5;exitDx=0;exitDy=0;exitPerimeter=0;entryX=0;entryY=0.32;entryDx=0;entryDy=0;fontFamily=Courier New;fontSize=10;endArrow=none;endFill=0;entryPerimeter=0;rounded=0;" parent="1" source="27" target="15" edge="1">
                    <mxGeometry relative="1" as="geometry"/>
                </mxCell>
                <mxCell id="27" value="" style="shape=display;whiteSpace=wrap;html=1;fontFamily=Courier New;fontSize=30;fillColor=default;" parent="1" vertex="1">
                    <mxGeometry x="190" y="210" width="20" height="10" as="geometry"/>
                </mxCell>
                <mxCell id="50" style="edgeStyle=elbowEdgeStyle;html=1;entryX=0.002;entryY=0.484;entryDx=0;entryDy=0;entryPerimeter=0;fontFamily=Courier New;fontSize=10;endArrow=none;endFill=0;rounded=0;" parent="1" source="28" target="15" edge="1">
                    <mxGeometry relative="1" as="geometry"/>
                </mxCell>
                <mxCell id="28" value="" style="shape=display;whiteSpace=wrap;html=1;fontFamily=Courier New;fontSize=30;fillColor=default;" parent="1" vertex="1">
                    <mxGeometry x="190" y="230" width="20" height="10" as="geometry"/>
                </mxCell>
                <mxCell id="51" style="edgeStyle=elbowEdgeStyle;html=1;exitX=1;exitY=0.5;exitDx=0;exitDy=0;exitPerimeter=0;entryX=0.002;entryY=0.651;entryDx=0;entryDy=0;entryPerimeter=0;fontFamily=Courier New;fontSize=10;endArrow=none;endFill=0;rounded=0;" parent="1" source="29" target="15" edge="1">
                    <mxGeometry relative="1" as="geometry"/>
                </mxCell>
                <mxCell id="29" value="" style="shape=display;whiteSpace=wrap;html=1;fontFamily=Courier New;fontSize=30;fillColor=default;" parent="1" vertex="1">
                    <mxGeometry x="190" y="250" width="20" height="10" as="geometry"/>
                </mxCell>
                <mxCell id="52" style="edgeStyle=elbowEdgeStyle;html=1;exitX=1;exitY=0.5;exitDx=0;exitDy=0;exitPerimeter=0;entryX=-0.002;entryY=0.817;entryDx=0;entryDy=0;entryPerimeter=0;fontFamily=Courier New;fontSize=10;endArrow=none;endFill=0;rounded=0;" parent="1" source="30" target="15" edge="1">
                    <mxGeometry relative="1" as="geometry"/>
                </mxCell>
                <mxCell id="30" value="" style="shape=display;whiteSpace=wrap;html=1;fontFamily=Courier New;fontSize=30;fillColor=default;" parent="1" vertex="1">
                    <mxGeometry x="190" y="270" width="20" height="10" as="geometry"/>
                </mxCell>
                <mxCell id="34" value="" style="endArrow=none;html=1;fontFamily=Courier New;fontSize=30;entryX=0;entryY=0.5;entryDx=0;entryDy=0;entryPerimeter=0;" parent="1" target="26" edge="1">
                    <mxGeometry width="50" height="50" relative="1" as="geometry">
                        <mxPoint x="80" y="195" as="sourcePoint"/>
                        <mxPoint x="160" y="180" as="targetPoint"/>
                    </mxGeometry>
                </mxCell>
                <mxCell id="43" value="&lt;font style=&quot;font-size: 10px;&quot;&gt;valid_i&lt;/font&gt;" style="edgeLabel;html=1;align=center;verticalAlign=middle;resizable=0;points=[];fontSize=10;fontFamily=Courier New;labelBackgroundColor=none;" parent="34" vertex="1" connectable="0">
                    <mxGeometry x="0.3817" relative="1" as="geometry">
                        <mxPoint x="-15" y="-8" as="offset"/>
                    </mxGeometry>
                </mxCell>
                <mxCell id="35" value="" style="endArrow=none;html=1;fontFamily=Courier New;fontSize=30;entryX=0;entryY=0.5;entryDx=0;entryDy=0;entryPerimeter=0;" parent="1" edge="1">
                    <mxGeometry width="50" height="50" relative="1" as="geometry">
                        <mxPoint x="80" y="215" as="sourcePoint"/>
                        <mxPoint x="190.00000000000006" y="214.74" as="targetPoint"/>
                    </mxGeometry>
                </mxCell>
                <mxCell id="44" value="packet_length_i" style="edgeLabel;html=1;align=center;verticalAlign=middle;resizable=0;points=[];fontSize=10;fontFamily=Courier New;labelBackgroundColor=none;" parent="35" vertex="1" connectable="0">
                    <mxGeometry x="-0.3938" y="1" relative="1" as="geometry">
                        <mxPoint x="27" y="-7" as="offset"/>
                    </mxGeometry>
                </mxCell>
                <mxCell id="36" value="" style="endArrow=none;html=1;fontFamily=Courier New;fontSize=30;entryX=0;entryY=0.5;entryDx=0;entryDy=0;entryPerimeter=0;" parent="1" edge="1">
                    <mxGeometry width="50" height="50" relative="1" as="geometry">
                        <mxPoint x="80" y="235" as="sourcePoint"/>
                        <mxPoint x="190.00000000000006" y="234.74" as="targetPoint"/>
                    </mxGeometry>
                </mxCell>
                <mxCell id="45" value="notime_i" style="edgeLabel;html=1;align=center;verticalAlign=middle;resizable=0;points=[];fontSize=10;fontFamily=Courier New;labelBackgroundColor=none;" parent="36" vertex="1" connectable="0">
                    <mxGeometry x="-0.3411" y="1" relative="1" as="geometry">
                        <mxPoint x="24" y="-7" as="offset"/>
                    </mxGeometry>
                </mxCell>
                <mxCell id="37" value="" style="endArrow=none;html=1;fontFamily=Courier New;fontSize=30;entryX=0;entryY=0.5;entryDx=0;entryDy=0;entryPerimeter=0;" parent="1" target="29" edge="1">
                    <mxGeometry width="50" height="50" relative="1" as="geometry">
                        <mxPoint x="80" y="255" as="sourcePoint"/>
                        <mxPoint x="189.00000000000006" y="254.74" as="targetPoint"/>
                    </mxGeometry>
                </mxCell>
                <mxCell id="46" value="timestamp_i" style="edgeLabel;html=1;align=center;verticalAlign=middle;resizable=0;points=[];fontSize=10;fontFamily=Courier New;labelBackgroundColor=none;" parent="37" vertex="1" connectable="0">
                    <mxGeometry x="-0.4595" y="1" relative="1" as="geometry">
                        <mxPoint x="31" y="-7" as="offset"/>
                    </mxGeometry>
                </mxCell>
                <mxCell id="38" value="" style="endArrow=none;html=1;fontFamily=Courier New;fontSize=30;entryX=0;entryY=0.5;entryDx=0;entryDy=0;entryPerimeter=0;" parent="1" edge="1">
                    <mxGeometry width="50" height="50" relative="1" as="geometry">
                        <mxPoint x="80" y="275" as="sourcePoint"/>
                        <mxPoint x="190.00000000000006" y="274.74" as="targetPoint"/>
                    </mxGeometry>
                </mxCell>
                <mxCell id="47" value="trace_payload_i" style="edgeLabel;html=1;align=center;verticalAlign=middle;resizable=0;points=[];fontSize=10;fontFamily=Courier New;labelBackgroundColor=none;" parent="38" vertex="1" connectable="0">
                    <mxGeometry x="-0.2622" y="1" relative="1" as="geometry">
                        <mxPoint x="17" y="-7" as="offset"/>
                    </mxGeometry>
                </mxCell>
                <mxCell id="79" style="edgeStyle=orthogonalEdgeStyle;rounded=0;html=1;entryX=1;entryY=0.166;entryDx=0;entryDy=0;entryPerimeter=0;strokeWidth=1;fontFamily=Courier New;fontSize=10;endArrow=none;endFill=0;" parent="1" source="53" target="21" edge="1">
                    <mxGeometry relative="1" as="geometry"/>
                </mxCell>
                <mxCell id="53" value="" style="shape=display;whiteSpace=wrap;html=1;fontFamily=Courier New;fontSize=30;fillColor=default;rotation=-180;" parent="1" vertex="1">
                    <mxGeometry x="1241" y="192" width="20" height="10" as="geometry"/>
                </mxCell>
                <mxCell id="78" style="edgeStyle=orthogonalEdgeStyle;rounded=0;html=1;exitX=1;exitY=0.5;exitDx=0;exitDy=0;exitPerimeter=0;entryX=1;entryY=0.334;entryDx=0;entryDy=0;entryPerimeter=0;strokeWidth=1;fontFamily=Courier New;fontSize=10;endArrow=none;endFill=0;" parent="1" source="54" target="21" edge="1">
                    <mxGeometry relative="1" as="geometry"/>
                </mxCell>
                <mxCell id="54" value="" style="shape=display;whiteSpace=wrap;html=1;fontFamily=Courier New;fontSize=30;fillColor=default;rotation=-180;" parent="1" vertex="1">
                    <mxGeometry x="1241" y="212" width="20" height="10" as="geometry"/>
                </mxCell>
                <mxCell id="75" style="edgeStyle=orthogonalEdgeStyle;rounded=0;html=1;entryX=1;entryY=0.5;entryDx=0;entryDy=0;strokeWidth=1;fontFamily=Courier New;fontSize=10;endArrow=none;endFill=0;" parent="1" source="55" target="21" edge="1">
                    <mxGeometry relative="1" as="geometry"/>
                </mxCell>
                <mxCell id="55" value="" style="shape=display;whiteSpace=wrap;html=1;fontFamily=Courier New;fontSize=30;fillColor=default;rotation=-180;" parent="1" vertex="1">
                    <mxGeometry x="1241" y="232" width="20" height="10" as="geometry"/>
                </mxCell>
                <mxCell id="76" style="edgeStyle=orthogonalEdgeStyle;rounded=0;html=1;exitX=1;exitY=0.5;exitDx=0;exitDy=0;exitPerimeter=0;entryX=1.001;entryY=0.669;entryDx=0;entryDy=0;entryPerimeter=0;strokeWidth=1;fontFamily=Courier New;fontSize=10;endArrow=none;endFill=0;" parent="1" source="56" target="21" edge="1">
                    <mxGeometry relative="1" as="geometry"/>
                </mxCell>
                <mxCell id="56" value="" style="shape=display;whiteSpace=wrap;html=1;fontFamily=Courier New;fontSize=30;fillColor=default;rotation=-180;" parent="1" vertex="1">
                    <mxGeometry x="1241" y="252" width="20" height="10" as="geometry"/>
                </mxCell>
                <mxCell id="77" style="edgeStyle=orthogonalEdgeStyle;rounded=0;html=1;entryX=0.998;entryY=0.836;entryDx=0;entryDy=0;entryPerimeter=0;strokeWidth=1;fontFamily=Courier New;fontSize=10;endArrow=none;endFill=0;" parent="1" source="57" target="21" edge="1">
                    <mxGeometry relative="1" as="geometry">
                        <Array as="points">
                            <mxPoint x="1260" y="277"/>
                        </Array>
                    </mxGeometry>
                </mxCell>
                <mxCell id="57" value="" style="shape=display;whiteSpace=wrap;html=1;fontFamily=Courier New;fontSize=30;fillColor=default;rotation=-180;" parent="1" vertex="1">
                    <mxGeometry x="1241" y="272" width="20" height="10" as="geometry"/>
                </mxCell>
                <mxCell id="58" value="" style="endArrow=none;html=1;fontFamily=Courier New;fontSize=30;entryX=0;entryY=0.5;entryDx=0;entryDy=0;entryPerimeter=0;" parent="1" target="53" edge="1">
                    <mxGeometry width="50" height="50" relative="1" as="geometry">
                        <mxPoint x="1380" y="197" as="sourcePoint"/>
                        <mxPoint x="1211" y="182" as="targetPoint"/>
                    </mxGeometry>
                </mxCell>
                <mxCell id="59" value="&lt;font style=&quot;font-size: 10px;&quot;&gt;atbytes_o&lt;/font&gt;" style="edgeLabel;html=1;align=center;verticalAlign=middle;resizable=0;points=[];fontSize=10;fontFamily=Courier New;labelBackgroundColor=none;" parent="58" vertex="1" connectable="0">
                    <mxGeometry x="0.3817" relative="1" as="geometry">
                        <mxPoint x="19" y="-8" as="offset"/>
                    </mxGeometry>
                </mxCell>
                <mxCell id="60" value="" style="endArrow=none;html=1;fontFamily=Courier New;fontSize=30;entryX=0;entryY=0.5;entryDx=0;entryDy=0;entryPerimeter=0;" parent="1" target="54" edge="1">
                    <mxGeometry width="50" height="50" relative="1" as="geometry">
                        <mxPoint x="1380" y="216.96" as="sourcePoint"/>
                        <mxPoint x="1262" y="217" as="targetPoint"/>
                    </mxGeometry>
                </mxCell>
                <mxCell id="61" value="atdata_o" style="edgeLabel;html=1;align=center;verticalAlign=middle;resizable=0;points=[];fontSize=10;fontFamily=Courier New;labelBackgroundColor=none;" parent="60" vertex="1" connectable="0">
                    <mxGeometry x="-0.3938" y="1" relative="1" as="geometry">
                        <mxPoint x="-27" y="-9" as="offset"/>
                    </mxGeometry>
                </mxCell>
                <mxCell id="62" value="" style="endArrow=none;html=1;fontFamily=Courier New;fontSize=30;entryX=0;entryY=0.5;entryDx=0;entryDy=0;entryPerimeter=0;" parent="1" target="55" edge="1">
                    <mxGeometry width="50" height="50" relative="1" as="geometry">
                        <mxPoint x="1380" y="237" as="sourcePoint"/>
                        <mxPoint x="1280" y="237" as="targetPoint"/>
                    </mxGeometry>
                </mxCell>
                <mxCell id="63" value="atid_o" style="edgeLabel;html=1;align=center;verticalAlign=middle;resizable=0;points=[];fontSize=10;fontFamily=Courier New;labelBackgroundColor=none;" parent="62" vertex="1" connectable="0">
                    <mxGeometry x="-0.3411" y="1" relative="1" as="geometry">
                        <mxPoint x="-23" y="-9" as="offset"/>
                    </mxGeometry>
                </mxCell>
                <mxCell id="64" value="" style="endArrow=none;html=1;fontFamily=Courier New;fontSize=30;exitX=0;exitY=0.5;exitDx=0;exitDy=0;exitPerimeter=0;" parent="1" source="56" edge="1">
                    <mxGeometry width="50" height="50" relative="1" as="geometry">
                        <mxPoint x="1280" y="257" as="sourcePoint"/>
                        <mxPoint x="1380" y="257" as="targetPoint"/>
                    </mxGeometry>
                </mxCell>
                <mxCell id="65" value="atvalid_o" style="edgeLabel;html=1;align=center;verticalAlign=middle;resizable=0;points=[];fontSize=10;fontFamily=Courier New;labelBackgroundColor=none;" parent="64" vertex="1" connectable="0">
                    <mxGeometry x="-0.4595" y="1" relative="1" as="geometry">
                        <mxPoint x="27" y="-7" as="offset"/>
                    </mxGeometry>
                </mxCell>
                <mxCell id="66" value="" style="endArrow=none;html=1;fontFamily=Courier New;fontSize=30;entryX=0;entryY=0.5;entryDx=0;entryDy=0;entryPerimeter=0;" parent="1" target="57" edge="1">
                    <mxGeometry width="50" height="50" relative="1" as="geometry">
                        <mxPoint x="1380" y="277" as="sourcePoint"/>
                        <mxPoint x="1280" y="277" as="targetPoint"/>
                    </mxGeometry>
                </mxCell>
                <mxCell id="67" value="afready_o" style="edgeLabel;html=1;align=center;verticalAlign=middle;resizable=0;points=[];fontSize=10;fontFamily=Courier New;labelBackgroundColor=none;" parent="66" vertex="1" connectable="0">
                    <mxGeometry x="-0.2622" y="1" relative="1" as="geometry">
                        <mxPoint x="-13" y="-9" as="offset"/>
                    </mxGeometry>
                </mxCell>
                <mxCell id="71" value="" style="endArrow=none;html=1;rounded=0;fontFamily=Courier New;fontSize=10;strokeWidth=2;" parent="1" edge="1">
                    <mxGeometry width="50" height="50" relative="1" as="geometry">
                        <mxPoint x="70" y="280" as="sourcePoint"/>
                        <mxPoint x="70" y="190" as="targetPoint"/>
                    </mxGeometry>
                </mxCell>
                <mxCell id="72" value="from TE" style="edgeLabel;html=1;align=center;verticalAlign=middle;resizable=0;points=[];fontSize=10;fontFamily=Courier New;" parent="71" vertex="1" connectable="0">
                    <mxGeometry x="-0.219" y="1" relative="1" as="geometry">
                        <mxPoint x="-26" y="-10" as="offset"/>
                    </mxGeometry>
                </mxCell>
                <mxCell id="73" value="" style="endArrow=none;html=1;rounded=0;fontFamily=Courier New;fontSize=10;strokeWidth=2;" parent="1" edge="1">
                    <mxGeometry width="50" height="50" relative="1" as="geometry">
                        <mxPoint x="1390" y="282" as="sourcePoint"/>
                        <mxPoint x="1390" y="192" as="targetPoint"/>
                    </mxGeometry>
                </mxCell>
                <mxCell id="74" value="to ATB Receiver" style="edgeLabel;html=1;align=center;verticalAlign=middle;resizable=0;points=[];fontSize=10;fontFamily=Courier New;" parent="73" vertex="1" connectable="0">
                    <mxGeometry x="-0.219" y="1" relative="1" as="geometry">
                        <mxPoint x="51" y="-10" as="offset"/>
                    </mxGeometry>
                </mxCell>
                <mxCell id="96" style="edgeStyle=orthogonalEdgeStyle;rounded=0;html=1;entryX=0;entryY=0.4;entryDx=0;entryDy=0;endArrow=none;endFill=0;entryPerimeter=0;fontFamily=Courier New;" parent="1" source="80" target="21" edge="1">
                    <mxGeometry relative="1" as="geometry">
                        <Array as="points">
                            <mxPoint x="950" y="310"/>
                            <mxPoint x="950" y="225"/>
                        </Array>
                    </mxGeometry>
                </mxCell>
                <mxCell id="80" value="" style="shape=display;whiteSpace=wrap;html=1;fontFamily=Courier New;fontSize=30;fillColor=default;" parent="1" vertex="1">
                    <mxGeometry x="190" y="305" width="20" height="10" as="geometry"/>
                </mxCell>
                <mxCell id="97" style="edgeStyle=orthogonalEdgeStyle;rounded=0;html=1;endArrow=none;endFill=0;entryX=0;entryY=0.6;entryDx=0;entryDy=0;entryPerimeter=0;exitX=1;exitY=0.5;exitDx=0;exitDy=0;exitPerimeter=0;fontFamily=Courier New;" parent="1" source="81" target="21" edge="1">
                    <mxGeometry relative="1" as="geometry">
                        <Array as="points">
                            <mxPoint x="970" y="330"/>
                            <mxPoint x="970" y="249"/>
                        </Array>
                    </mxGeometry>
                </mxCell>
                <mxCell id="81" value="" style="shape=display;whiteSpace=wrap;html=1;fontFamily=Courier New;fontSize=30;fillColor=default;" parent="1" vertex="1">
                    <mxGeometry x="190" y="325" width="20" height="10" as="geometry"/>
                </mxCell>
                <mxCell id="82" value="" style="endArrow=none;html=1;fontFamily=Courier New;fontSize=30;entryX=0;entryY=0.5;entryDx=0;entryDy=0;entryPerimeter=0;" parent="1" target="80" edge="1">
                    <mxGeometry width="50" height="50" relative="1" as="geometry">
                        <mxPoint x="80" y="310" as="sourcePoint"/>
                        <mxPoint x="189.0000000000001" y="309.73999999999995" as="targetPoint"/>
                    </mxGeometry>
                </mxCell>
                <mxCell id="83" value="atready_i" style="edgeLabel;html=1;align=center;verticalAlign=middle;resizable=0;points=[];fontSize=10;fontFamily=Courier New;labelBackgroundColor=none;" parent="82" vertex="1" connectable="0">
                    <mxGeometry x="-0.4595" y="1" relative="1" as="geometry">
                        <mxPoint x="31" y="-7" as="offset"/>
                    </mxGeometry>
                </mxCell>
                <mxCell id="84" value="" style="endArrow=none;html=1;fontFamily=Courier New;fontSize=30;entryX=0;entryY=0.5;entryDx=0;entryDy=0;entryPerimeter=0;" parent="1" edge="1">
                    <mxGeometry width="50" height="50" relative="1" as="geometry">
                        <mxPoint x="80" y="330" as="sourcePoint"/>
                        <mxPoint x="190.0000000000001" y="329.74" as="targetPoint"/>
                    </mxGeometry>
                </mxCell>
                <mxCell id="85" value="afvalid_i" style="edgeLabel;html=1;align=center;verticalAlign=middle;resizable=0;points=[];fontSize=10;fontFamily=Courier New;labelBackgroundColor=none;" parent="84" vertex="1" connectable="0">
                    <mxGeometry x="-0.2622" y="1" relative="1" as="geometry">
                        <mxPoint x="17" y="-7" as="offset"/>
                    </mxGeometry>
                </mxCell>
                <mxCell id="92" value="" style="shape=display;whiteSpace=wrap;html=1;fontFamily=Courier New;fontSize=30;fillColor=default;rotation=-180;" parent="1" vertex="1">
                    <mxGeometry x="1241" y="355" width="20" height="10" as="geometry"/>
                </mxCell>
                <mxCell id="93" value="" style="endArrow=none;html=1;fontFamily=Courier New;fontSize=30;entryX=0;entryY=0.5;entryDx=0;entryDy=0;entryPerimeter=0;" parent="1" target="92" edge="1">
                    <mxGeometry width="50" height="50" relative="1" as="geometry">
                        <mxPoint x="1380" y="359" as="sourcePoint"/>
                        <mxPoint x="1280" y="359" as="targetPoint"/>
                    </mxGeometry>
                </mxCell>
                <mxCell id="94" value="encapsulator_ready_o" style="edgeLabel;html=1;align=center;verticalAlign=middle;resizable=0;points=[];fontSize=10;fontFamily=Courier New;labelBackgroundColor=none;" parent="93" vertex="1" connectable="0">
                    <mxGeometry x="-0.2622" y="1" relative="1" as="geometry">
                        <mxPoint x="-14" y="-10" as="offset"/>
                    </mxGeometry>
                </mxCell>
                <mxCell id="95" style="edgeStyle=orthogonalEdgeStyle;html=1;exitX=1;exitY=0.75;exitDx=0;exitDy=0;entryX=1;entryY=0.5;entryDx=0;entryDy=0;entryPerimeter=0;endArrow=none;endFill=0;rounded=0;jumpStyle=arc;fontFamily=Courier New;" parent="1" source="17" target="92" edge="1">
                    <mxGeometry relative="1" as="geometry">
                        <Array as="points">
                            <mxPoint x="620" y="252"/>
                            <mxPoint x="620" y="360"/>
                            <mxPoint x="1241" y="360"/>
                        </Array>
                    </mxGeometry>
                </mxCell>
                <mxCell id="99" value="" style="endArrow=none;html=1;rounded=0;fontFamily=Courier New;fontSize=10;strokeWidth=2;" parent="1" edge="1">
                    <mxGeometry width="50" height="50" relative="1" as="geometry">
                        <mxPoint x="70" y="340" as="sourcePoint"/>
                        <mxPoint x="70" y="302.99999999999994" as="targetPoint"/>
                    </mxGeometry>
                </mxCell>
                <mxCell id="100" value="from ATB Receiver" style="edgeLabel;html=1;align=center;verticalAlign=middle;resizable=0;points=[];fontSize=10;fontFamily=Courier New;" parent="99" vertex="1" connectable="0">
                    <mxGeometry x="-0.219" y="1" relative="1" as="geometry">
                        <mxPoint x="-56" y="-7" as="offset"/>
                    </mxGeometry>
                </mxCell>
                <mxCell id="103" value="" style="endArrow=none;html=1;rounded=0;fontFamily=Courier New;fontSize=10;strokeWidth=2;" parent="1" edge="1">
                    <mxGeometry width="50" height="50" relative="1" as="geometry">
                        <mxPoint x="1390" y="369" as="sourcePoint"/>
                        <mxPoint x="1390" y="352" as="targetPoint"/>
                    </mxGeometry>
                </mxCell>
                <mxCell id="104" value="to TE" style="edgeLabel;html=1;align=center;verticalAlign=middle;resizable=0;points=[];fontSize=10;fontFamily=Courier New;" parent="103" vertex="1" connectable="0">
                    <mxGeometry x="-0.219" y="1" relative="1" as="geometry">
                        <mxPoint x="21" y="-3" as="offset"/>
                    </mxGeometry>
                </mxCell>
            </root>
        </mxGraphModel>
    </diagram>
</mxfile>